<svg width="21" height="20" viewBox="0 0 21 20" fill="none" xmlns="http://www.w3.org/2000/svg">
<path d="M14.5856 18.9121L13.6661 12.4686C13.6661 12.2176 13.8333 11.9665 14.0841 11.8828L20.5201 10.9624C20.7709 10.9624 20.938 10.7113 20.938 10.3766L20.4366 6.77825C20.4366 6.5272 20.1858 6.35984 19.8514 6.35984L13.4153 7.28033C13.1646 7.28033 12.9139 7.11297 12.8303 6.86192L11.9108 0.41841C11.9108 0.167364 11.66 0 11.3257 0L7.73153 0.502097C7.48078 0.502097 7.3136 0.753141 7.3136 1.08787L8.23308 7.53138C8.23308 7.78243 8.06591 8.03347 7.81515 8.11715L1.37905 9.03766C1.12829 9.03766 0.961121 9.2887 0.961121 9.62343L1.46261 13.2218C1.46261 13.4728 1.71338 13.6402 2.04772 13.6402L8.48382 12.7197C8.73458 12.7197 8.98535 12.887 9.06893 13.1381L9.98835 19.5816C9.98835 19.8326 10.2391 20 10.5735 20L14.1676 19.4979C14.4184 19.4142 14.5856 19.1632 14.5856 18.9121Z" fill="#FDD08D"/>
</svg>
